<svg width="60" height="60" viewBox="0 0 60 60" fill="none" xmlns="http://www.w3.org/2000/svg">
<g id="New logo/gray/icon">
<path id="Vector" fill-rule="evenodd" clip-rule="evenodd" d="M13.934 4.69777C15.5981 5.72185 17.714 5.95867 19.6557 5.15038C21.5977 4.34203 22.9205 2.67366 23.3664 0.771023C27.6463 -0.204239 32.1719 -0.248911 36.6327 0.768938C37.078 2.67249 38.4012 4.34185 40.3438 5.1505C42.2868 5.95927 44.4039 5.72167 46.0687 4.69601C49.9585 7.15993 53.1375 10.4348 55.4691 14.2004C54.4277 15.8538 54.1687 17.967 54.9566 19.9172C55.7449 21.8677 57.3995 23.208 59.2975 23.6737C60.1849 27.7645 60.2236 32.072 59.2996 36.3268C57.4007 36.792 55.7452 38.1325 54.9566 40.0836C54.1684 42.0349 54.4283 44.1493 55.4709 45.803C53.0463 49.7216 49.8048 52.9335 46.066 55.3032C44.4018 54.2789 42.2856 54.0418 40.3438 54.8504C38.4018 55.6587 37.0789 57.3271 36.633 59.2299C32.3532 60.2051 27.8275 60.2498 23.367 59.2317C22.9215 57.3283 21.5984 55.659 19.6558 54.8504C17.7129 54.0415 15.5958 54.2792 13.9312 55.3047C10.0411 52.8409 6.86227 49.5658 4.53045 45.8001C5.57178 44.1469 5.8307 42.0337 5.04281 40.0836C4.25481 38.1334 2.60029 36.7929 0.702332 36.3271C-0.184949 32.2365 -0.223745 27.9289 0.700222 23.6741C2.59911 23.2089 4.25463 21.8683 5.04293 19.9172C5.83123 17.9661 5.5716 15.8517 4.52883 14.198C6.95358 10.2793 10.1951 7.06738 13.934 4.69777ZM30 50.9795C41.5864 50.9795 50.979 41.5869 50.979 30.0005C50.979 18.414 41.5864 9.0214 30 9.0214C18.4137 9.0214 9.02101 18.414 9.02101 30.0005C9.02101 41.5869 18.4137 50.9795 30 50.9795Z" fill="#8C969D"/>
<path id="Subtract" fill-rule="evenodd" clip-rule="evenodd" d="M48.1943 30.8602C48.2075 30.5753 48.2142 30.2886 48.2142 30.0004C48.2142 19.9409 40.0594 11.7861 29.9999 11.7861C19.9405 11.7861 11.7856 19.9409 11.7856 30.0004C11.7856 30.2886 11.7923 30.5753 11.8056 30.8602H22.3018C22.6412 30.8602 22.9518 31.0524 23.1051 31.3572L25.4081 35.9371L27.4384 15.815C27.4847 15.3566 27.8653 15.0061 28.323 15.0004C28.7807 14.9946 29.1698 15.3355 29.2274 15.7926L31.6036 34.6614L33.1142 23.3981C33.1705 22.978 33.5086 22.6534 33.9281 22.6165C34.3476 22.5796 34.7365 22.8403 34.8643 23.2442L37.2756 30.8602H48.1943ZM48.0196 32.6728H36.6175C36.2256 32.6728 35.8787 32.4176 35.7597 32.0417L34.3635 27.6317L32.4678 41.7663C32.4073 42.2172 32.0239 42.5531 31.5718 42.5513C31.1198 42.5494 30.7391 42.2104 30.6823 41.759L28.4329 23.8974L26.889 39.199C26.8486 39.5994 26.5508 39.925 26.1577 39.9985C25.7646 40.072 25.3705 39.8758 25.1899 39.5167L21.7484 32.6728H11.9803C13.2731 41.4654 20.8483 48.2147 29.9999 48.2147C39.1516 48.2147 46.7268 41.4654 48.0196 32.6728Z" fill="#F43E54"/>
</g>
</svg>
