<svg width="25" height="24" viewBox="0 0 25 24" fill="none" xmlns="http://www.w3.org/2000/svg">
<g id="Icons/Plus">
<path id="Vector" fill-rule="evenodd" clip-rule="evenodd" d="M12.5 5.25C12.6989 5.25 12.8897 5.32902 13.0303 5.46967C13.171 5.61032 13.25 5.80109 13.25 6V12C13.25 12.1989 13.171 12.3897 13.0303 12.5303C12.8897 12.671 12.6989 12.75 12.5 12.75H6.5C6.30109 12.75 6.11032 12.671 5.96967 12.5303C5.82902 12.3897 5.75 12.1989 5.75 12C5.75 11.8011 5.82902 11.6103 5.96967 11.4697C6.11032 11.329 6.30109 11.25 6.5 11.25H11.75V6C11.75 5.80109 11.829 5.61032 11.9697 5.46967C12.1103 5.32902 12.3011 5.25 12.5 5.25Z" fill="black"/>
<path id="Vector_2" fill-rule="evenodd" clip-rule="evenodd" d="M11.75 12C11.75 11.8011 11.829 11.6103 11.9697 11.4697C12.1103 11.329 12.3011 11.25 12.5 11.25H18.5C18.6989 11.25 18.8897 11.329 19.0303 11.4697C19.171 11.6103 19.25 11.8011 19.25 12C19.25 12.1989 19.171 12.3897 19.0303 12.5303C18.8897 12.671 18.6989 12.75 18.5 12.75H13.25V18C13.25 18.1989 13.171 18.3897 13.0303 18.5303C12.8897 18.671 12.6989 18.75 12.5 18.75C12.3011 18.75 12.1103 18.671 11.9697 18.5303C11.829 18.3897 11.75 18.1989 11.75 18V12Z" fill="black"/>
</g>
</svg>
